<svg width="24" height="24" viewBox="0 0 24 24" fill="none" xmlns="http://www.w3.org/2000/svg">
	<path fill-rule="evenodd" clip-rule="evenodd" d="M12.6255 1.58911C13.3586 1.5889 14.0606 1.88539 14.5716 2.41108C15.0783 2.93226 15.3544 3.63471 15.3387 4.36085C15.3426 4.53814 15.3922 4.71149 15.4828 4.8641L15.4849 4.86773C15.6332 5.12061 15.876 5.30412 16.1597 5.3778C16.4435 5.45147 16.7449 5.40926 16.9975 5.26046L17.0058 5.25558C18.3036 4.51189 19.9586 4.95906 20.7054 6.25517L21.3278 7.33521C21.3447 7.36459 21.3597 7.39492 21.3727 7.426C22.0484 8.70494 21.6006 10.2983 20.3429 11.0339L20.3366 11.0376C20.1705 11.1327 20.0327 11.2705 19.9375 11.4366L19.9346 11.4417C19.7867 11.6956 19.7461 11.998 19.8218 12.2818C19.8975 12.5657 20.0832 12.8077 20.3379 12.9543C20.9617 13.3131 21.4167 13.9059 21.6022 14.6013C21.7876 15.2967 21.6882 16.0373 21.3259 16.6591L21.3207 16.668L20.6641 17.7622C19.9118 19.0492 18.2614 19.4882 16.9688 18.7443C16.8068 18.652 16.6249 18.6005 16.4387 18.5941C16.1474 18.5951 15.868 18.7112 15.6618 18.9174C15.4535 19.1258 15.3371 19.4087 15.3385 19.7033L15.3386 19.711C15.3314 21.2043 14.1188 22.4111 12.6255 22.4111H11.3715C9.87479 22.4111 8.66117 21.1992 8.65844 19.7031C8.656 19.5227 8.60627 19.3462 8.51418 19.191L8.50765 19.18C8.36267 18.9266 8.12255 18.7415 7.84051 18.666C7.55847 18.5906 7.25796 18.6309 7.00578 18.778L6.99384 18.785C6.36419 19.138 5.61979 19.2253 4.92546 19.028C4.23384 18.8314 3.64864 18.3684 3.29827 17.7408L2.67025 16.6577L2.66941 16.6562C1.92364 15.3638 2.36579 13.7116 3.65737 12.9644C4.00175 12.7656 4.21451 12.3978 4.21451 12.0001C4.21451 11.6024 4.00236 11.235 3.65798 11.0362L3.65572 11.0349C2.36432 10.2836 1.92328 8.62974 2.66916 7.33525L2.67886 7.31887L3.34252 6.22792C4.09174 4.9387 5.74206 4.49535 7.03695 5.23732L7.04757 5.24341C7.20248 5.33535 7.37871 5.38515 7.55878 5.38773C8.16342 5.38558 8.65571 4.90096 8.66757 4.29666C8.6666 3.58066 8.94968 2.89334 9.45494 2.38565C9.96239 1.87576 10.6521 1.5891 11.3715 1.58911H12.6255C12.6256 1.58911 12.6254 1.58911 12.6255 1.58911ZM13.4244 3.52633C13.2147 3.31063 12.9266 3.18899 12.6258 3.18911L11.3715 3.18911C11.0778 3.18911 10.7962 3.30614 10.589 3.51431C10.3818 3.72248 10.2662 4.00462 10.2676 4.29831L10.2675 4.31364C10.2462 5.79678 9.03776 6.98789 7.55446 6.98774L7.54624 6.98774C7.08549 6.98295 6.63414 6.8572 6.23731 6.6232C5.70548 6.32142 5.02926 6.50529 4.72369 7.03564L4.71399 7.05203L4.0514 8.14121C3.75113 8.67121 3.93281 9.34503 4.46024 9.65183L4.05798 10.3433L4.45797 9.65052C5.2974 10.1352 5.81451 11.0308 5.81451 12.0001C5.81451 12.9694 5.2974 13.865 4.45797 14.3497C3.93135 14.6548 3.75103 15.3286 4.05488 15.8559C4.05476 15.8557 4.055 15.8561 4.05488 15.8559L4.68598 16.9443L4.69363 16.9578C4.83718 17.2169 5.07803 17.408 5.36288 17.489C5.64601 17.5694 5.94941 17.5344 6.20673 17.3918C6.82596 17.0331 7.56259 16.9354 8.25413 17.1204C8.94634 17.3057 9.53617 17.7589 9.89338 18.3799C10.1277 18.777 10.2536 19.2287 10.2584 19.6897L10.2585 19.698C10.2585 20.3128 10.7568 20.8111 11.3715 20.8111H12.6255C13.2371 20.8111 13.734 20.3176 13.7385 19.7064C13.7363 18.9864 14.0213 18.2952 14.5305 17.7861C15.0407 17.2758 15.7338 16.9907 16.4554 16.9942L16.473 16.9944C16.9265 17.0066 17.37 17.1307 17.7639 17.3559L17.7663 17.3573C18.2974 17.6633 18.9759 17.4823 19.2841 16.9525L19.2895 16.9432L19.9457 15.8498C20.0917 15.5967 20.1315 15.296 20.0562 15.0135C19.9805 14.7296 19.7947 14.4876 19.54 14.3411C18.9162 13.9822 18.4612 13.3895 18.2758 12.6941C18.0906 11.9997 18.1895 11.2601 18.5506 10.6388C18.7864 10.2282 19.127 9.88741 19.5375 9.65136C20.0623 9.34269 20.2418 8.66939 19.9398 8.14033C19.9262 8.11646 19.9139 8.09197 19.9028 8.06697L19.3191 7.054C19.0133 6.52335 18.3365 6.33953 17.8045 6.642C17.1869 7.00406 16.4508 7.10642 15.7576 6.92645C15.0633 6.74617 14.4691 6.29737 14.1058 5.6789C13.87 5.28097 13.7434 4.8279 13.7386 4.36538C13.7385 4.35496 13.7386 4.34453 13.7389 4.33411C13.7475 4.03341 13.634 3.74203 13.4244 3.52633Z" fill="#E8E8E8"/>
	<path fill-rule="evenodd" clip-rule="evenodd" d="M12.0031 10.1637C10.989 10.1637 10.1669 10.9858 10.1669 11.9999C10.1669 13.014 10.989 13.836 12.0031 13.836C13.0171 13.836 13.8392 13.014 13.8392 11.9999C13.8392 10.9858 13.0171 10.1637 12.0031 10.1637ZM8.56689 11.9999C8.56689 10.1021 10.1053 8.56372 12.0031 8.56372C13.9008 8.56372 15.4392 10.1021 15.4392 11.9999C15.4392 13.8976 13.9008 15.436 12.0031 15.436C10.1053 15.436 8.56689 13.8976 8.56689 11.9999Z" fill="#E8E8E8"/>
</svg>
