<svg width="24" height="24" viewBox="0 0 24 24" fill="none" xmlns="http://www.w3.org/2000/svg">
<path fill-rule="evenodd" clip-rule="evenodd" d="M20.6347 7.73445L20.0122 6.65436C19.4857 5.74044 18.3187 5.42516 17.4035 5.94956V5.94956C16.9679 6.20618 16.4481 6.27899 15.9587 6.15193C15.4693 6.02486 15.0506 5.70836 14.7948 5.27221C14.6303 4.99499 14.5419 4.67923 14.5386 4.35688V4.35688C14.5534 3.84006 14.3584 3.33924 13.998 2.96851C13.6376 2.59778 13.1425 2.3887 12.6255 2.38892H11.3715C10.865 2.38891 10.3793 2.59075 10.022 2.94979C9.66469 3.30882 9.46518 3.79543 9.46761 4.30196V4.30196C9.4526 5.34777 8.60048 6.18765 7.55457 6.18754C7.23221 6.1842 6.91646 6.09578 6.63924 5.93125V5.93125C5.72406 5.40685 4.55712 5.72214 4.03054 6.63606L3.36235 7.73445C2.83641 8.64723 3.1474 9.81345 4.058 10.3432V10.3432C4.64991 10.6849 5.01453 11.3164 5.01453 11.9999C5.01453 12.6834 4.64991 13.3149 4.058 13.6567V13.6567C3.14856 14.1828 2.83723 15.3462 3.36235 16.2562V16.2562L3.99393 17.3454C4.24065 17.7906 4.65461 18.1191 5.1442 18.2583C5.63379 18.3974 6.15864 18.3357 6.60262 18.0869V18.0869C7.03908 17.8322 7.55919 17.7624 8.04734 17.893C8.53549 18.0237 8.95124 18.3439 9.20217 18.7825C9.3667 19.0597 9.45511 19.3755 9.45846 19.6978V19.6978C9.45846 20.7544 10.315 21.6109 11.3715 21.6109H12.6255C13.6785 21.6109 14.5335 20.76 14.5386 19.707V19.707C14.5361 19.1989 14.7369 18.7109 15.0962 18.3516C15.4555 17.9923 15.9435 17.7915 16.4516 17.794C16.7732 17.8026 17.0876 17.8906 17.3669 18.0502V18.0502C18.2797 18.5762 19.4459 18.2652 19.9756 17.3546V17.3546L20.6347 16.2562C20.8898 15.8183 20.9598 15.2969 20.8292 14.8072C20.6986 14.3176 20.3783 13.9002 19.939 13.6475V13.6475C19.4998 13.3948 19.1794 12.9774 19.0488 12.4878C18.9182 11.9981 18.9883 11.4767 19.2434 11.0388C19.4092 10.7492 19.6494 10.509 19.939 10.3432V10.3432C20.8441 9.81373 21.1544 8.65433 20.6347 7.74361V7.74361V7.73445Z" stroke="#161616" stroke-width="1.4" stroke-linecap="round" stroke-linejoin="round"/>
<circle cx="12.0031" cy="11.9999" r="2.63616" stroke="#161616" stroke-width="1.4" stroke-linecap="round" stroke-linejoin="round"/>
</svg>
