<svg width="16" height="16" viewBox="0 0 16 16" fill="none" xmlns="http://www.w3.org/2000/svg">
    <rect width="16" height="16" rx="8" fill="white"/>
    <path fill-rule="evenodd" clip-rule="evenodd" d="M9.69802 7.64413L11.0321 8.1703C11.2838 8.26956 11.2838 8.62574 11.0321 8.725L9.69802 9.25117C8.8528 9.58452 8.18374 10.2536 7.85039 11.0988L7.32423 12.4329C7.22497 12.6846 6.86878 12.6846 6.76952 12.4329L6.24336 11.0988C5.91001 10.2536 5.24095 9.58452 4.39573 9.25117L3.06162 8.725C2.80994 8.62574 2.80994 8.26956 3.06162 8.1703L4.39573 7.64413C5.24095 7.31078 5.91001 6.64173 6.24336 5.79651L6.76952 4.4624C6.86878 4.21072 7.22497 4.21072 7.32423 4.4624L7.85039 5.79651C8.18374 6.64173 8.8528 7.31078 9.69802 7.64413ZM7.2314 6.64909L7.04688 6.18008L6.86235 6.64909C6.57019 7.38989 5.98379 7.97628 5.24299 8.26845L4.77516 8.45242L5.24299 8.6375C5.94264 8.91343 6.50455 9.45181 6.81096 10.1348L6.86235 10.2569L7.04688 10.7241L7.2314 10.2569C7.50733 9.55721 8.04571 8.99529 8.72874 8.68889L8.85076 8.6375L9.31859 8.45242L8.85076 8.26845C8.15111 7.99252 7.5892 7.45414 7.28279 6.7711L7.2314 6.64909Z" fill="#7451D5"/>
    <path fill-rule="evenodd" clip-rule="evenodd" d="M11.1797 6.47031L9.79802 5.92539L11.1797 5.38047L11.7246 3.9988L12.2695 5.38047L13.6512 5.92539L12.2695 6.47031L11.7246 7.85198L11.1797 6.47031Z" fill="#7451D5"/>
</svg>
